<?xml version="1.0" standalone="no"?>
<!DOCTYPE svg PUBLIC "-//W3C//DTD SVG 20010904//EN"
 "http://www.w3.org/TR/2001/REC-SVG-20010904/DTD/svg10.dtd">
<svg version="1.0" xmlns="http://www.w3.org/2000/svg"
 width="480.000000pt" height="420.000000pt" viewBox="0 0 480.000000 420.000000"
 preserveAspectRatio="xMidYMid meet">

<g transform="translate(0.000000,420.000000) scale(0.100000,-0.100000)"
fill="#000000" stroke="none">
<path d="M2717 3135 c-406 -111 -539 -605 -239 -886 82 -77 145 -113 248 -139
292 -75 582 90 668 379 20 69 21 189 1 266 -47 179 -203 331 -391 380 -71 18
-220 18 -287 0z m222 -394 c94 -67 84 -200 -18 -246 -93 -42 -201 28 -201 130
0 107 134 178 219 116z"/>
<path d="M1290 2624 l0 -505 333 3 c280 3 340 7 384 21 128 43 202 132 211
255 7 101 -10 148 -74 208 -48 47 -52 53 -37 65 31 26 53 91 53 159 0 156
-106 258 -302 290 -35 5 -177 10 -315 10 l-253 0 0 -506z m521 236 c23 -13 26
-62 3 -81 -8 -7 -40 -14 -70 -17 l-54 -4 0 -123 0 -123 60 -4 c72 -5 107 -31
97 -70 -9 -33 -46 -48 -122 -48 l-65 0 0 240 0 240 66 0 c36 0 74 -5 85 -10z"/>
<path d="M1290 2058 c0 -2 87 -228 194 -503 l194 -500 233 -3 234 -2 187 487
c103 269 190 496 194 506 6 16 -8 17 -197 17 l-204 0 -98 -268 c-53 -147 -97
-275 -97 -284 0 -10 11 -48 25 -84 23 -60 26 -88 9 -71 -3 3 -65 162 -138 354
l-132 348 -202 3 c-111 1 -202 1 -202 0z"/>
<path d="M2642 2033 c-6 -16 -92 -239 -191 -497 -100 -258 -181 -473 -181
-477 0 -6 87 -8 201 -7 l201 3 101 274 101 273 -27 76 c-15 41 -25 78 -22 81
10 9 17 -8 151 -364 l129 -345 202 0 203 0 -20 53 c-11 28 -98 255 -194 502
l-174 450 -235 3 -235 2 -10 -27z"/>
</g>
</svg>
